# This file uses centimeters as units for non-parametric coordinates.

mtllib InSide_Bend_2_LP.mtl
g default
v 2.999900 0.000000 -2.000000
v 3.000000 0.000000 -2.500000
v 3.000000 0.000000 -3.000000
v 2.999900 0.500000 -2.000000
v 3.000000 1.000000 -2.500000
v 3.000000 1.000000 -3.000000
v 1.000000 0.500000 -0.000100
v 0.500000 1.000000 0.000000
v -0.000000 1.000000 0.000000
v 1.000000 0.000000 -0.000100
v 0.500000 0.000000 0.000000
v -0.000000 0.000000 0.000000
v 2.825506 0.500000 -1.992390
v 2.652538 0.500000 -1.969619
v 2.482214 0.500000 -1.931858
v 2.315828 0.500000 -1.879397
v 2.154648 0.500000 -1.812634
v 1.999900 0.500000 -1.732078
v 1.852762 0.500000 -1.638340
v 1.714353 0.500000 -1.532136
v 1.585728 0.500000 -1.414272
v 1.467864 0.500000 -1.285647
v 1.361660 0.500000 -1.147238
v 1.267923 0.500000 -1.000100
v 1.187366 0.500000 -0.845352
v 1.120603 0.500000 -0.684172
v 1.068142 0.500000 -0.517787
v 1.030381 0.500000 -0.347462
v 1.007610 0.500000 -0.174494
v 2.499800 1.000000 -2.500000
v 2.325506 1.000000 -2.492390
v 2.152539 1.000000 -2.469619
v 1.982214 1.000000 -2.431859
v 1.815828 1.000000 -2.379397
v 1.654648 1.000000 -2.312634
v 1.499900 1.000000 -2.232078
v 1.352762 1.000000 -2.138340
v 1.214353 1.000000 -2.032136
v 1.085728 1.000000 -1.914272
v 0.967864 1.000000 -1.785647
v 0.861660 1.000000 -1.647238
v 0.767922 1.000000 -1.500100
v 0.687366 1.000000 -1.345352
v 0.620603 1.000000 -1.184172
v 0.568142 1.000000 -1.017787
v 0.530381 1.000000 -0.847462
v 0.507610 1.000000 -0.674494
v 0.500000 1.000000 -0.500200
v 0.000000 1.000000 -3.000000
v 2.825506 0.000000 -1.992390
v 2.652538 0.000000 -1.969619
v 2.482214 0.000000 -1.931858
v 2.315828 0.000000 -1.879397
v 2.154648 0.000000 -1.812634
v 1.999900 0.000000 -1.732078
v 1.852762 0.000000 -1.638340
v 1.714353 0.000000 -1.532136
v 1.585728 0.000000 -1.414272
v 1.467864 0.000000 -1.285647
v 1.361660 0.000000 -1.147238
v 1.267923 0.000000 -1.000100
v 1.187366 0.000000 -0.845352
v 1.120603 0.000000 -0.684172
v 1.068142 0.000000 -0.517787
v 1.030381 0.000000 -0.347462
v 1.007610 0.000000 -0.174494
v 2.499800 0.000000 -2.500000
v 2.325506 0.000000 -2.492390
v 2.152538 0.000000 -2.469619
v 1.982214 0.000000 -2.431859
v 1.815828 0.000000 -2.379397
v 1.654648 0.000000 -2.312634
v 1.499900 0.000000 -2.232078
v 1.352762 0.000000 -2.138340
v 1.214353 0.000000 -2.032136
v 1.085728 0.000000 -1.914272
v 0.967864 0.000000 -1.785647
v 0.861660 0.000000 -1.647238
v 0.767922 0.000000 -1.500100
v 0.687366 0.000000 -1.345352
v 0.620603 0.000000 -1.184172
v 0.568142 0.000000 -1.017786
v 0.530381 0.000000 -0.847462
v 0.507610 0.000000 -0.674494
v 0.500000 0.000000 -0.500200
v 0.000000 -0.000000 -3.000000
vt 0.164797 0.847417
vt 0.101119 0.847448
vt 0.164797 0.976942
vt 0.164797 0.912179
vt 0.037695 0.977003
vt 0.037695 0.912241
vt 0.037695 0.803186
vt 0.037695 0.738424
vt 0.164797 0.738462
vt 0.164797 0.803224
vt 0.101119 0.673681
vt 0.164797 0.673699
vt 0.762025 0.833171
vt 0.762016 0.789101
vt 0.762025 0.895449
vt 0.717878 0.833171
vt 0.717808 0.657005
vt 0.762025 0.657005
vt 0.762016 0.701185
vt 0.588493 0.940353
vt 0.762025 0.982914
vt 0.762025 0.939407
vt 0.588037 0.892992
vt 0.716314 0.494125
vt 0.760061 0.450046
vt 0.663151 0.555443
vt 0.760070 0.494125
vt 0.760070 0.317831
vt 0.760061 0.362132
vt 0.760070 0.643731
vt 0.760070 0.600369
vt 0.716245 0.643731
vt 0.663296 0.600764
vt 0.760070 0.556411
vt 0.716245 0.317831
vt 0.717809 0.982914
vt 0.741481 0.782453
vt 0.720366 0.778349
vt 0.698959 0.775951
vt 0.677583 0.774774
vt 0.656589 0.774602
vt 0.636354 0.775458
vt 0.617291 0.777632
vt 0.599858 0.781775
vt 0.584552 0.789101
vt 0.584552 0.450046
vt 0.599616 0.442642
vt 0.616789 0.438326
vt 0.635602 0.435951
vt 0.655613 0.434883
vt 0.676410 0.434836
vt 0.697608 0.435811
vt 0.718842 0.438109
vt 0.739762 0.442425
vt 0.697682 0.836914
vt 0.677330 0.839500
vt 0.657012 0.841141
vt 0.636853 0.841991
vt 0.616930 0.842129
vt 0.597306 0.841541
vt 0.578060 0.840091
vt 0.559331 0.837479
vt 0.541378 0.833171
vt 0.541378 0.494125
vt 0.559148 0.498563
vt 0.577677 0.501452
vt 0.596718 0.503222
vt 0.616136 0.504136
vt 0.635861 0.504304
vt 0.655845 0.503683
vt 0.676020 0.502076
vt 0.696257 0.499096
vt 0.568610 0.553185
vt 0.741687 0.706403
vt 0.720516 0.709877
vt 0.698935 0.712159
vt 0.677338 0.713524
vt 0.656116 0.714038
vt 0.635687 0.713579
vt 0.616534 0.711803
vt 0.599242 0.708052
vt 0.584552 0.362132
vt 0.584552 0.701185
vt 0.599073 0.368848
vt 0.616236 0.372388
vt 0.635236 0.373955
vt 0.655465 0.374228
vt 0.676435 0.373568
vt 0.697736 0.372122
vt 0.719003 0.369879
vt 0.739892 0.366670
vt 0.698167 0.982914
vt 0.698167 0.657005
vt 0.678525 0.982914
vt 0.678525 0.657005
vt 0.658883 0.982914
vt 0.658883 0.657005
vt 0.639241 0.982914
vt 0.639241 0.657005
vt 0.619599 0.982914
vt 0.619599 0.657005
vt 0.599957 0.982914
vt 0.599957 0.657005
vt 0.580316 0.982914
vt 0.580316 0.657005
vt 0.560674 0.982914
vt 0.560674 0.657005
vt 0.541032 0.643731
vt 0.541032 0.982914
vt 0.541032 0.657005
vt 0.541032 0.317831
vt 0.560500 0.643731
vt 0.560500 0.317831
vt 0.579968 0.643731
vt 0.579968 0.317831
vt 0.599436 0.643731
vt 0.599436 0.317831
vt 0.618904 0.643731
vt 0.618904 0.317831
vt 0.638372 0.643731
vt 0.638372 0.317831
vt 0.657841 0.643731
vt 0.657840 0.317831
vt 0.677309 0.643731
vt 0.677309 0.317831
vt 0.696777 0.643731
vt 0.696777 0.317831
vt 0.568929 0.601288
vn 1.000000 0.000000 0.000200
vn 1.000000 0.000000 0.000200
vn 1.000000 0.000000 0.000200
vn 1.000000 0.000000 0.000200
vn 1.000000 0.000000 0.000000
vn 1.000000 0.000000 0.000000
vn 1.000000 0.000000 0.000000
vn 1.000000 0.000000 0.000000
vn 0.000200 0.000000 1.000000
vn 0.000055 0.000000 1.000000
vn 0.000086 0.000000 1.000000
vn 0.000200 0.000000 1.000000
vn -0.000000 0.000000 1.000000
vn -0.000000 0.000000 1.000000
vn 0.016095 0.715017 0.698921
vn -0.000000 0.707107 0.707107
vn 0.018615 0.716231 0.697615
vn 0.000000 1.000000 -0.000000
vn 0.000000 1.000000 -0.000000
vn 0.000000 1.000000 -0.000000
vn 0.000000 1.000000 -0.000000
vn 0.000000 -1.000000 0.000000
vn 0.000000 -1.000000 0.000000
vn 0.000000 -1.000000 0.000000
vn 0.000000 -1.000000 0.000000
vn 0.000000 -1.000000 0.000000
vn 0.000000 -0.000000 -1.000000
vn -0.707107 -0.000000 -0.707107
vn -0.707107 -0.000000 -0.707107
vn 0.000000 -0.000000 -1.000000
vn 0.698921 0.715018 0.016095
vn 0.697615 0.716231 0.018615
vn 0.707107 0.707107 0.000000
vn 0.000000 1.000000 -0.000000
vn 0.000000 1.000000 -0.000000
vn 0.000000 1.000000 -0.000000
vn 0.000000 -1.000000 0.000000
vn 0.000000 -1.000000 0.000000
vn 0.000000 -1.000000 0.000000
vn 0.000000 -1.000000 0.000000
vn -1.000000 0.000000 -0.000000
vn -1.000000 0.000000 -0.000000
vn 0.996197 0.000000 0.087131
vn 0.999049 0.000000 0.043594
vn 0.999049 0.000000 0.043594
vn 0.996197 0.000000 0.087131
vn 0.984808 0.000000 0.173648
vn 0.984808 0.000000 0.173648
vn 0.965926 0.000000 0.258819
vn 0.965926 0.000000 0.258819
vn 0.939693 0.000000 0.342020
vn 0.939693 0.000000 0.342020
vn 0.906308 0.000000 0.422619
vn 0.906308 0.000000 0.422619
vn 0.866025 0.000000 0.500000
vn 0.866025 0.000000 0.500000
vn 0.819152 0.000000 0.573576
vn 0.819152 0.000000 0.573576
vn 0.766044 0.000000 0.642788
vn 0.766044 0.000000 0.642788
vn 0.707107 0.000000 0.707107
vn 0.707107 0.000000 0.707107
vn 0.642788 0.000000 0.766044
vn 0.642788 0.000000 0.766044
vn 0.573576 0.000000 0.819152
vn 0.573576 0.000000 0.819152
vn 0.500000 0.000000 0.866026
vn 0.500000 0.000000 0.866026
vn 0.422618 0.000000 0.906308
vn 0.422618 0.000000 0.906308
vn 0.342020 0.000000 0.939693
vn 0.342020 0.000000 0.939693
vn 0.258819 0.000000 0.965926
vn 0.258819 0.000000 0.965926
vn 0.173648 0.000000 0.984808
vn 0.173648 0.000000 0.984808
vn 0.043594 0.000000 0.999049
vn 0.087131 0.000000 0.996197
vn 0.087131 0.000000 0.996197
vn 0.043594 0.000000 0.999049
vn 0.681180 0.730456 0.049274
vn 0.669962 0.739164 0.069201
vn 0.648435 0.753926 0.105490
vn 0.638366 0.760054 0.121688
vn 0.615196 0.772518 0.157322
vn 0.606421 0.776698 0.170276
vn 0.581655 0.787072 0.205417
vn 0.574252 0.789795 0.215543
vn 0.547865 0.798225 0.250361
vn 0.541874 0.799879 0.258005
vn 0.513778 0.806456 0.292679
vn 0.509224 0.807349 0.298124
vn 0.479272 0.812108 0.332836
vn 0.476186 0.812493 0.336307
vn 0.444170 0.815410 0.371240
vn 0.442594 0.815505 0.372911
vn 0.408248 0.816497 0.408248
vn 0.408248 0.816497 0.408248
vn 0.371240 0.815410 0.444170
vn 0.372910 0.815505 0.442594
vn 0.332836 0.812108 0.479272
vn 0.336307 0.812493 0.476186
vn 0.292679 0.806456 0.513778
vn 0.298125 0.807349 0.509225
vn 0.250361 0.798226 0.547865
vn 0.258005 0.799879 0.541873
vn 0.205417 0.787071 0.581655
vn 0.215543 0.789795 0.574252
vn 0.157322 0.772518 0.615196
vn 0.170276 0.776697 0.606422
vn 0.105490 0.753926 0.648435
vn 0.121688 0.760054 0.638366
vn 0.049274 0.730456 0.681180
vn 0.069201 0.739164 0.669961
vn 0.000000 1.000000 -0.000000
vn 0.000000 1.000000 -0.000000
vn 0.000000 1.000000 -0.000000
vn 0.000000 1.000000 -0.000000
vn 0.000000 1.000000 -0.000000
vn 0.000000 1.000000 -0.000000
vn 0.000000 1.000000 -0.000000
vn 0.000000 1.000000 -0.000000
vn 0.000000 1.000000 -0.000000
vn 0.000000 1.000000 -0.000000
vn 0.000000 1.000000 -0.000000
vn 0.000000 1.000000 -0.000000
vn 0.000000 1.000000 -0.000000
vn 0.000000 1.000000 -0.000000
vn 0.000000 1.000000 -0.000000
vn 0.000000 1.000000 -0.000000
vn 0.000000 1.000000 -0.000000
vn 0.000000 -1.000000 0.000000
vn 0.000000 -1.000000 0.000000
vn 0.000000 -1.000000 0.000000
vn 0.000000 -1.000000 0.000000
vn 0.000000 -1.000000 0.000000
vn 0.000000 -1.000000 0.000000
vn 0.000000 -1.000000 0.000000
vn 0.000000 -1.000000 0.000000
vn 0.000000 -1.000000 0.000000
vn 0.000000 -1.000000 0.000000
vn 0.000000 -1.000000 0.000000
vn 0.000000 -1.000000 0.000000
vn 0.000000 -1.000000 0.000000
vn 0.000000 -1.000000 0.000000
vn 0.000000 -1.000000 0.000000
vn 0.000000 -1.000000 0.000000
vn 0.000000 -1.000000 0.000000
vn 0.000000 -1.000000 0.000000
vn 0.000000 -1.000000 0.000000
vn 0.000000 -1.000000 0.000000
vn 0.000000 -1.000000 0.000000
vn 0.000000 -1.000000 0.000000
vn 0.000000 -1.000000 0.000000
vn 0.000000 -1.000000 0.000000
vn 0.000000 -1.000000 0.000000
vn 0.000000 -1.000000 0.000000
vn 0.000000 -1.000000 0.000000
vn 0.000000 -1.000000 0.000000
vn 0.000000 -1.000000 0.000000
vn 0.000000 -1.000000 0.000000
vn 0.000000 -1.000000 0.000000
vn 0.000000 -1.000000 0.000000
vn 0.000000 -1.000000 0.000000
vn 0.000000 -1.000000 0.000000
s off
g Inide_Bend_1
usemtl initialShadingGroup
f 1/3/1 2/4/2 5/6/3 4/5/4
f 2/4/5 3/1/6 6/2/7 5/6/8
s 1
f 7/7/9 8/8/10 11/9/11 10/10/12
f 8/8/10 9/11/13 12/12/14 11/9/11
s 2
f 4/14/15 5/13/16 30/16/17
s 3
f 5/13/18 6/15/19 49/23/20 30/16/21
s 4
f 1/19/22 67/17/23 2/18/24
f 67/36/23 86/20/25 3/22/26 2/21/24
s 5
f 3/22/27 86/20/28 49/23/29 6/15/30
s 2
f 7/25/31 48/24/32 8/27/33
s 3
f 48/24/34 49/26/20 9/34/35 8/27/36
s 4
f 10/29/37 11/28/38 85/35/39
f 11/30/38 12/31/40 86/33/25 85/32/39
s 5
f 86/33/28 12/31/41 9/34/42 49/26/29
s 9
f 29/54/43 7/25/44 10/29/45 66/91/46
f 28/53/47 29/54/43 66/91/46 65/90/48
f 27/52/49 28/53/47 65/90/48 64/89/50
f 26/51/51 27/52/49 64/89/50 63/88/52
f 25/50/53 26/51/51 63/88/52 62/87/54
f 24/49/55 25/50/53 62/87/54 61/86/56
f 23/48/57 24/49/55 61/86/56 60/85/58
f 22/47/59 23/48/57 60/85/58 59/84/60
f 21/46/61 22/47/59 59/84/60 58/82/62
f 20/44/63 21/45/61 58/83/62 57/81/64
f 19/43/65 20/44/63 57/81/64 56/80/66
f 18/42/67 19/43/65 56/80/66 55/79/68
f 17/41/69 18/42/67 55/79/68 54/78/70
f 16/40/71 17/41/69 54/78/70 53/77/72
f 15/39/73 16/40/71 53/77/72 52/76/74
f 14/38/75 15/39/73 52/76/74 51/75/76
f 4/14/77 13/37/78 50/74/79 1/19/80
f 13/37/78 14/38/75 51/75/76 50/74/79
s 2
f 7/25/31 29/54/81 47/72/82 48/24/32
f 29/54/81 28/53/83 46/71/84 47/72/82
f 28/53/83 27/52/85 45/70/86 46/71/84
f 27/52/85 26/51/87 44/69/88 45/70/86
f 26/51/87 25/50/89 43/68/90 44/69/88
f 25/50/89 24/49/91 42/67/92 43/68/90
f 24/49/91 23/48/93 41/66/94 42/67/92
f 23/48/93 22/47/95 40/65/96 41/66/94
f 22/47/95 21/46/97 39/64/98 40/65/96
f 21/45/97 20/44/99 38/62/100 39/63/98
f 20/44/99 19/43/101 37/61/102 38/62/100
f 19/43/101 18/42/103 36/60/104 37/61/102
f 18/42/103 17/41/105 35/59/106 36/60/104
f 17/41/105 16/40/107 34/58/108 35/59/106
f 16/40/107 15/39/109 33/57/110 34/58/108
f 15/39/109 14/38/111 32/56/112 33/57/110
f 14/38/111 13/37/113 31/55/114 32/56/112
f 13/37/113 4/14/15 30/16/17 31/55/114
s 3
f 48/24/34 47/72/115 49/26/20
f 47/72/115 46/71/116 49/73/20
f 46/71/116 45/70/117 49/73/20
f 45/70/117 44/69/118 49/73/20
f 44/69/118 43/68/119 49/73/20
f 43/68/119 42/67/120 49/73/20
f 42/67/120 41/66/121 49/73/20
f 41/66/121 40/65/122 49/73/20
f 40/65/122 39/64/123 49/73/20
f 39/63/123 38/62/124 49/23/20
f 38/62/124 37/61/125 49/23/20
f 37/61/125 36/60/126 49/23/20
f 36/60/126 35/59/127 49/23/20
f 35/59/127 34/58/128 49/23/20
f 34/58/128 33/57/129 49/23/20
f 33/57/129 32/56/130 49/23/20
f 32/56/130 31/55/131 49/23/20
f 31/55/131 30/16/21 49/23/20
s 4
f 66/91/132 10/29/37 85/35/39 84/127/133
f 65/90/134 66/91/132 84/127/133 83/125/135
f 64/89/136 65/90/134 83/125/135 82/123/137
f 63/88/138 64/89/136 82/123/137 81/121/139
f 62/87/140 63/88/138 81/121/139 80/119/141
f 61/86/142 62/87/140 80/119/141 79/117/143
f 60/85/144 61/86/142 79/117/143 78/115/145
f 59/84/146 60/85/144 78/115/145 77/113/147
f 58/82/148 59/84/146 77/113/147 76/111/149
f 57/81/150 58/83/148 76/110/149 75/107/151
f 56/80/152 57/81/150 75/107/151 74/105/153
f 55/79/154 56/80/152 74/105/153 73/103/155
f 54/78/156 55/79/154 73/103/155 72/101/157
f 53/77/158 54/78/156 72/101/157 71/99/159
f 52/76/160 53/77/158 71/99/159 70/97/161
f 51/75/162 52/76/160 70/97/161 69/95/163
f 1/19/22 50/74/164 68/93/165 67/17/23
f 50/74/164 51/75/162 69/95/163 68/93/165
f 84/126/133 85/32/39 86/33/25
f 83/124/135 84/126/133 86/33/25
f 82/122/137 83/124/135 86/128/25
f 81/120/139 82/122/137 86/128/25
f 80/118/141 81/120/139 86/128/25
f 79/116/143 80/118/141 86/128/25
f 78/114/145 79/116/143 86/128/25
f 77/112/147 78/114/145 86/128/25
f 76/108/149 77/112/147 86/128/25
f 75/106/151 76/109/149 86/20/25
f 74/104/153 75/106/151 86/20/25
f 73/102/155 74/104/153 86/20/25
f 72/100/157 73/102/155 86/20/25
f 71/98/159 72/100/157 86/20/25
f 70/96/161 71/98/159 86/20/25
f 69/94/163 70/96/161 86/20/25
f 67/36/23 68/92/165 86/20/25
f 68/92/165 69/94/163 86/20/25
