# This file uses centimeters as units for non-parametric coordinates.

mtllib InSide_Bend_LP.mtl
g default
v 3.000000 0.000000 0.000000
v 3.000000 0.000000 -2.500000
v 3.000000 0.000000 -3.000000
v 3.000000 1.000000 0.000000
v 3.000000 1.000000 -2.500000
v 3.000000 0.500000 -3.000000
v 3.000000 1.000000 0.000000
v 0.500000 1.000000 -0.000000
v 0.000000 0.500000 -0.000000
v 3.000000 0.000000 -0.000000
v 0.500000 0.000000 0.000000
v -0.000000 0.000000 0.000000
v 3.000000 1.000000 0.000000
v 3.000000 1.000000 0.000000
v 3.000000 1.000000 0.000000
v 3.000000 1.000000 0.000000
v 3.000000 1.000000 0.000000
v 3.000000 1.000000 0.000000
v 3.000000 1.000000 0.000000
v 3.000000 1.000000 0.000000
v 3.000000 1.000000 0.000000
v 3.000000 1.000000 0.000000
v 3.000000 1.000000 0.000000
v 3.000000 1.000000 0.000000
v 3.000000 1.000000 0.000000
v 3.000000 1.000000 0.000000
v 3.000000 1.000000 0.000000
v 3.000000 1.000000 0.000000
v 3.000000 1.000000 0.000000
v 2.499800 1.000000 -2.500000
v 2.325506 1.000000 -2.492390
v 2.152538 1.000000 -2.469619
v 1.982214 1.000000 -2.431859
v 1.815828 1.000000 -2.379397
v 1.654648 1.000000 -2.312634
v 1.499900 1.000000 -2.232078
v 1.352762 1.000000 -2.138340
v 1.214353 1.000000 -2.032136
v 1.085728 1.000000 -1.914272
v 0.967864 1.000000 -1.785647
v 0.861660 1.000000 -1.647238
v 0.767922 1.000000 -1.500100
v 0.687366 1.000000 -1.345352
v 0.620603 1.000000 -1.184172
v 0.568141 1.000000 -1.017786
v 0.530381 1.000000 -0.847462
v 0.507610 1.000000 -0.674494
v 0.500000 1.000000 -0.500200
v 1.999800 0.500000 -3.000000
v 1.825506 0.500000 -2.992390
v 1.652538 0.500000 -2.969619
v 1.482214 0.500000 -2.931859
v 1.315828 0.500000 -2.879397
v 1.154648 0.500000 -2.812634
v 0.999900 0.500000 -2.732078
v 0.852762 0.500000 -2.638340
v 0.714353 0.500000 -2.532136
v 0.585728 0.500000 -2.414272
v 0.467864 0.500000 -2.285647
v 0.361660 0.500000 -2.147238
v 0.267922 0.500000 -2.000100
v 0.187366 0.500000 -1.845352
v 0.120603 0.500000 -1.684172
v 0.068141 0.500000 -1.517786
v 0.030381 0.500000 -1.347462
v 0.007610 0.500000 -1.174494
v -0.000000 0.500000 -1.000200
v 3.000000 0.000000 0.000000
v 3.000000 0.000000 0.000000
v 3.000000 0.000000 0.000000
v 3.000000 0.000000 0.000000
v 3.000000 0.000000 0.000000
v 3.000000 0.000000 0.000000
v 3.000000 0.000000 0.000000
v 3.000000 0.000000 0.000000
v 3.000000 0.000000 0.000000
v 3.000000 0.000000 0.000000
v 3.000000 0.000000 0.000000
v 3.000000 0.000000 0.000000
v 3.000000 0.000000 0.000000
v 3.000000 0.000000 0.000000
v 3.000000 0.000000 0.000000
v 3.000000 0.000000 0.000000
v 3.000000 0.000000 0.000000
v 2.499800 0.000000 -2.500000
v 2.325506 0.000000 -2.492390
v 2.152538 0.000000 -2.469619
v 1.982214 0.000000 -2.431859
v 1.815828 0.000000 -2.379397
v 1.654648 0.000000 -2.312634
v 1.499900 0.000000 -2.232078
v 1.352762 0.000000 -2.138340
v 1.214353 0.000000 -2.032136
v 1.085728 0.000000 -1.914272
v 0.967864 0.000000 -1.785647
v 0.861660 0.000000 -1.647238
v 0.767922 0.000000 -1.500100
v 0.687366 0.000000 -1.345352
v 0.620603 0.000000 -1.184172
v 0.568141 0.000000 -1.017786
v 0.530381 0.000000 -0.847462
v 0.507610 0.000000 -0.674494
v 0.500000 0.000000 -0.500200
v 1.999800 0.000000 -3.000000
v 1.825506 0.000000 -2.992390
v 1.652538 0.000000 -2.969619
v 1.482214 0.000000 -2.931859
v 1.315828 0.000000 -2.879397
v 1.154648 0.000000 -2.812634
v 0.999900 0.000000 -2.732078
v 0.852762 0.000000 -2.638340
v 0.714353 0.000000 -2.532136
v 0.585728 0.000000 -2.414272
v 0.467864 0.000000 -2.285647
v 0.361660 0.000000 -2.147238
v 0.267922 0.000000 -2.000100
v 0.187366 0.000000 -1.845352
v 0.120603 0.000000 -1.684172
v 0.068141 0.000000 -1.517786
v 0.030381 0.000000 -1.347462
v 0.007610 0.000000 -1.174494
v -0.000000 0.000000 -1.000200
vt 0.164797 0.847417
vt 0.101119 0.847448
vt 0.164797 0.976942
vt 0.164797 0.912179
vt 0.037695 0.977003
vt 0.037695 0.912241
vt 0.037695 0.803186
vt 0.037695 0.738424
vt 0.164797 0.738462
vt 0.164797 0.803224
vt 0.101119 0.673681
vt 0.164797 0.673699
vt 0.762025 0.833171
vt 0.762016 0.789101
vt 0.762025 0.895449
vt 0.717878 0.833171
vt 0.717808 0.657005
vt 0.762025 0.657005
vt 0.762016 0.701185
vt 0.674056 0.939407
vt 0.762025 0.982914
vt 0.762025 0.939407
vt 0.674056 0.895449
vt 0.716314 0.494125
vt 0.760061 0.450046
vt 0.672753 0.556411
vt 0.760070 0.494125
vt 0.760070 0.317831
vt 0.760061 0.362132
vt 0.760070 0.643731
vt 0.760070 0.600369
vt 0.716245 0.643731
vt 0.672753 0.600369
vt 0.760070 0.556411
vt 0.716245 0.317831
vt 0.717809 0.982914
vt 0.741597 0.789726
vt 0.720588 0.790172
vt 0.699310 0.790417
vt 0.678080 0.790456
vt 0.657212 0.790301
vt 0.637030 0.789989
vt 0.617897 0.789591
vt 0.600234 0.789227
vt 0.584552 0.789101
vt 0.584552 0.450046
vt 0.599964 0.450159
vt 0.617337 0.450477
vt 0.636198 0.450819
vt 0.656146 0.451070
vt 0.676824 0.451168
vt 0.697900 0.451086
vt 0.719043 0.450833
vt 0.739893 0.450458
vt 0.697693 0.836184
vt 0.677584 0.838507
vt 0.657640 0.840121
vt 0.637889 0.841017
vt 0.618320 0.841180
vt 0.598898 0.840572
vt 0.579593 0.839120
vt 0.560400 0.836708
vt 0.541378 0.833171
vt 0.541378 0.494125
vt 0.560245 0.497721
vt 0.579280 0.500239
vt 0.598409 0.501805
vt 0.617630 0.502513
vt 0.636980 0.502415
vt 0.656508 0.501532
vt 0.676251 0.499858
vt 0.696209 0.497384
vt 0.654917 0.897716
vt 0.636222 0.899193
vt 0.617780 0.900067
vt 0.599365 0.900461
vt 0.580731 0.900442
vt 0.561605 0.900024
vt 0.541693 0.899159
vt 0.520669 0.897718
vt 0.498171 0.895449
vt 0.498171 0.556411
vt 0.520563 0.558702
vt 0.541506 0.560149
vt 0.561332 0.561013
vt 0.580349 0.561429
vt 0.598844 0.561451
vt 0.617086 0.561065
vt 0.635325 0.560201
vt 0.653802 0.558722
vt 0.741659 0.701081
vt 0.720688 0.701382
vt 0.699433 0.701847
vt 0.678213 0.702309
vt 0.657341 0.702647
vt 0.637147 0.702771
vt 0.617994 0.702612
vt 0.600299 0.702106
vt 0.584552 0.362132
vt 0.584552 0.701185
vt 0.600120 0.363014
vt 0.617662 0.363480
vt 0.636647 0.363608
vt 0.656642 0.363468
vt 0.677278 0.363136
vt 0.698229 0.362702
vt 0.719200 0.362282
vt 0.739903 0.362026
vt 0.698167 0.982914
vt 0.698167 0.657005
vt 0.678525 0.982914
vt 0.678525 0.657005
vt 0.658883 0.982914
vt 0.658883 0.657005
vt 0.639241 0.982914
vt 0.639241 0.657005
vt 0.619599 0.982914
vt 0.619599 0.657005
vt 0.599957 0.982914
vt 0.599957 0.657005
vt 0.580316 0.982914
vt 0.580316 0.657005
vt 0.560674 0.982914
vt 0.560674 0.657005
vt 0.541032 0.643731
vt 0.541032 0.982914
vt 0.541032 0.657005
vt 0.541032 0.317831
vt 0.560500 0.643731
vt 0.560500 0.317831
vt 0.579968 0.643731
vt 0.579968 0.317831
vt 0.599436 0.643731
vt 0.599436 0.317831
vt 0.618904 0.643731
vt 0.618904 0.317831
vt 0.638372 0.643731
vt 0.638372 0.317831
vt 0.657841 0.643731
vt 0.657840 0.317831
vt 0.677309 0.643731
vt 0.677309 0.317831
vt 0.696777 0.643731
vt 0.696777 0.317831
vt 0.654972 0.937373
vt 0.636464 0.935973
vt 0.618254 0.935029
vt 0.600065 0.934452
vt 0.581611 0.934227
vt 0.562580 0.934412
vt 0.542620 0.935146
vt 0.521316 0.936677
vt 0.498171 0.600369
vt 0.498171 0.939407
vt 0.521147 0.597661
vt 0.542252 0.596183
vt 0.562030 0.595508
vt 0.580912 0.595378
vt 0.599252 0.595650
vt 0.617353 0.596260
vt 0.635479 0.597205
vt 0.653872 0.598538
vn 1.000000 0.000000 0.000000
vn 1.000000 0.000000 0.000000
vn 1.000000 0.000000 0.000000
vn 1.000000 0.000000 0.000000
vn 1.000000 0.000000 0.000000
vn 1.000000 0.000000 0.000000
vn 1.000000 0.000000 0.000000
vn 1.000000 0.000000 0.000000
vn -0.000000 0.000000 1.000000
vn -0.000000 0.000000 1.000000
vn -0.000000 0.000000 1.000000
vn -0.000000 0.000000 1.000000
vn 0.000000 0.000000 1.000000
vn 0.000000 0.000000 1.000000
vn 0.000000 1.000000 0.000000
vn 0.000000 1.000000 0.000000
vn 0.000000 1.000000 0.000000
vn 0.000000 0.707107 -0.707107
vn 0.000000 0.707107 -0.707107
vn -0.010537 0.712316 -0.701780
vn -0.002923 0.708564 -0.705641
vn 0.000000 -1.000000 0.000000
vn -0.000000 -1.000000 -0.000000
vn -0.000000 -1.000000 -0.000000
vn -0.000000 -1.000000 -0.000000
vn -0.000000 -1.000000 -0.000000
vn 0.000000 0.000000 -1.000000
vn -0.006479 0.000000 -0.999979
vn -0.006479 0.000000 -0.999979
vn 0.000000 0.000000 -1.000000
vn 0.000000 1.000000 0.000000
vn 0.000000 1.000000 0.000000
vn 0.000000 1.000000 0.000000
vn -0.705641 0.708564 -0.002923
vn -0.701780 0.712316 -0.010537
vn -0.707107 0.707107 -0.000000
vn -0.707107 0.707107 -0.000000
vn 0.000000 -1.000000 0.000000
vn -0.000000 -1.000000 0.000000
vn -0.000000 -1.000000 0.000000
vn -0.000000 -1.000000 0.000000
vn -0.000000 -1.000000 0.000000
vn -0.999979 0.000000 -0.006479
vn -1.000000 0.000000 0.000000
vn -1.000000 0.000000 0.000000
vn -0.999979 0.000000 -0.006479
vn 0.000000 0.000000 0.000000
vn 0.000000 0.000000 0.000000
vn 0.000000 0.000000 0.000000
vn 0.000000 0.000000 0.000000
vn 0.000000 0.000000 0.000000
vn 0.000000 0.000000 0.000000
vn 0.000000 0.000000 0.000000
vn 0.000000 0.000000 0.000000
vn 0.000000 0.000000 0.000000
vn 0.000000 0.000000 0.000000
vn 0.000000 0.000000 0.000000
vn 0.000000 0.000000 0.000000
vn 0.000000 0.000000 0.000000
vn 0.000000 0.000000 0.000000
vn 0.000000 0.000000 0.000000
vn 0.000000 0.000000 0.000000
vn 0.000000 0.000000 0.000000
vn 0.000000 0.000000 0.000000
vn 0.000000 0.000000 0.000000
vn 0.000000 0.000000 0.000000
vn 0.000000 0.000000 0.000000
vn 0.000000 0.000000 0.000000
vn 0.000000 0.000000 0.000000
vn 0.000000 0.000000 0.000000
vn 0.000000 0.000000 0.000000
vn 0.000000 0.000000 0.000000
vn 0.000000 0.000000 0.000000
vn 0.000000 0.000000 0.000000
vn 0.000000 0.000000 0.000000
vn 0.000000 0.000000 0.000000
vn 0.000000 0.000000 0.000000
vn 0.000000 0.000000 0.000000
vn 0.000000 0.000000 0.000000
vn 0.000000 0.000000 0.000000
vn 0.000000 0.000000 0.000000
vn 0.000000 0.000000 0.000000
vn 0.000000 0.000000 0.000000
vn 0.000000 0.000000 0.000000
vn 0.000000 1.000000 0.000000
vn 0.000000 1.000000 0.000000
vn 0.000000 0.000000 0.000000
vn 0.000000 1.000000 0.000000
vn 0.000000 0.000000 0.000000
vn 0.000000 1.000000 0.000000
vn 0.000000 0.000000 0.000000
vn 0.000000 1.000000 0.000000
vn 0.000000 0.000000 0.000000
vn 0.000000 1.000000 0.000000
vn 0.000000 0.000000 0.000000
vn 0.000000 1.000000 0.000000
vn 0.000000 0.000000 0.000000
vn 0.000000 1.000000 0.000000
vn 0.000000 0.000000 0.000000
vn 0.000000 1.000000 0.000000
vn 0.000000 0.000000 0.000000
vn 0.000000 1.000000 0.000000
vn 0.000000 0.000000 0.000000
vn 0.000000 1.000000 0.000000
vn 0.000000 0.000000 0.000000
vn 0.000000 1.000000 0.000000
vn 0.000000 0.000000 0.000000
vn 0.000000 1.000000 0.000000
vn 0.000000 0.000000 0.000000
vn 0.000000 1.000000 0.000000
vn 0.000000 0.000000 0.000000
vn 0.000000 1.000000 0.000000
vn 0.000000 0.000000 0.000000
vn 0.000000 1.000000 0.000000
vn 0.000000 0.000000 0.000000
vn 0.000000 1.000000 0.000000
vn 0.000000 0.000000 0.000000
vn 0.000000 1.000000 0.000000
vn -0.681176 0.730459 -0.049283
vn -0.669959 0.739165 -0.069207
vn -0.648435 0.753925 -0.105490
vn -0.638366 0.760054 -0.121688
vn -0.615196 0.772518 -0.157322
vn -0.606422 0.776698 -0.170276
vn -0.581655 0.787072 -0.205417
vn -0.574252 0.789795 -0.215543
vn -0.547865 0.798225 -0.250361
vn -0.541873 0.799879 -0.258005
vn -0.513778 0.806456 -0.292679
vn -0.509225 0.807349 -0.298124
vn -0.479272 0.812108 -0.332836
vn -0.476186 0.812493 -0.336307
vn -0.444170 0.815410 -0.371240
vn -0.442594 0.815505 -0.372910
vn -0.408248 0.816497 -0.408248
vn -0.408248 0.816497 -0.408248
vn -0.371240 0.815410 -0.444170
vn -0.372911 0.815505 -0.442594
vn -0.332836 0.812108 -0.479272
vn -0.336307 0.812493 -0.476186
vn -0.292679 0.806456 -0.513778
vn -0.298124 0.807349 -0.509224
vn -0.250361 0.798225 -0.547865
vn -0.258005 0.799879 -0.541874
vn -0.205417 0.787072 -0.581655
vn -0.215543 0.789795 -0.574252
vn -0.157322 0.772518 -0.615196
vn -0.170276 0.776698 -0.606421
vn -0.105490 0.753925 -0.648435
vn -0.121688 0.760054 -0.638366
vn -0.049283 0.730459 -0.681176
vn -0.069207 0.739166 -0.669959
vn 0.000000 -1.000000 0.000000
vn -0.000000 -1.000000 -0.000000
vn 0.000000 -0.000000 0.000000
vn -0.000000 -1.000000 -0.000000
vn 0.000000 -0.000000 0.000000
vn -0.000000 -1.000000 -0.000000
vn 0.000000 -0.000000 0.000000
vn -0.000000 -1.000000 -0.000000
vn 0.000000 -0.000000 0.000000
vn -0.000000 -1.000000 -0.000000
vn 0.000000 -0.000000 0.000000
vn -0.000000 -1.000000 -0.000000
vn 0.000000 -0.000000 0.000000
vn -0.000000 -1.000000 -0.000000
vn 0.000000 -0.000000 0.000000
vn -0.000000 -1.000000 -0.000000
vn 0.000000 -0.000000 0.000000
vn -0.000000 -1.000000 -0.000000
vn 0.000000 -0.000000 0.000000
vn -0.000000 -1.000000 -0.000000
vn 0.000000 -0.000000 0.000000
vn -0.000000 -1.000000 -0.000000
vn 0.000000 -0.000000 0.000000
vn -0.000000 -1.000000 -0.000000
vn 0.000000 -0.000000 0.000000
vn -0.000000 -1.000000 -0.000000
vn 0.000000 -0.000000 0.000000
vn -0.000000 -1.000000 -0.000000
vn 0.000000 -0.000000 0.000000
vn -0.000000 -1.000000 -0.000000
vn 0.000000 -0.000000 0.000000
vn -0.000000 -1.000000 -0.000000
vn 0.000000 -0.000000 0.000000
vn -0.000000 -1.000000 -0.000000
vn -0.000000 -1.000000 -0.000000
vn -0.000000 -1.000000 -0.000000
vn -0.000000 -1.000000 -0.000000
vn -0.000000 -1.000000 -0.000000
vn -0.000000 -1.000000 -0.000000
vn -0.000000 -1.000000 -0.000000
vn -0.000000 -1.000000 -0.000000
vn -0.000000 -1.000000 -0.000000
vn -0.000000 -1.000000 -0.000000
vn -0.000000 -1.000000 -0.000000
vn -0.000000 -1.000000 -0.000000
vn -0.000000 -1.000000 -0.000000
vn -0.000000 -1.000000 -0.000000
vn -0.000000 -1.000000 -0.000000
vn -0.000000 -1.000000 -0.000000
vn -0.000000 -1.000000 -0.000000
vn -0.000000 -1.000000 -0.000000
vn -0.996195 0.000000 -0.087156
vn -0.996195 0.000000 -0.087156
vn -0.984808 0.000000 -0.173648
vn -0.984808 0.000000 -0.173648
vn -0.965926 0.000000 -0.258819
vn -0.965926 0.000000 -0.258819
vn -0.939692 0.000000 -0.342021
vn -0.939692 0.000000 -0.342021
vn -0.906308 0.000000 -0.422619
vn -0.906308 0.000000 -0.422619
vn -0.866026 0.000000 -0.500000
vn -0.866026 0.000000 -0.500000
vn -0.819152 0.000000 -0.573577
vn -0.819152 0.000000 -0.573577
vn -0.766044 0.000000 -0.642788
vn -0.766044 0.000000 -0.642788
vn -0.707107 0.000000 -0.707107
vn -0.707107 0.000000 -0.707107
vn -0.642788 0.000000 -0.766045
vn -0.642788 0.000000 -0.766045
vn -0.573576 -0.000000 -0.819152
vn -0.573576 -0.000000 -0.819152
vn -0.500000 -0.000000 -0.866026
vn -0.500000 -0.000000 -0.866026
vn -0.422619 -0.000000 -0.906308
vn -0.422619 -0.000000 -0.906308
vn -0.342021 0.000000 -0.939692
vn -0.342021 0.000000 -0.939692
vn -0.258819 0.000000 -0.965926
vn -0.258819 0.000000 -0.965926
vn -0.173648 0.000000 -0.984808
vn -0.173648 0.000000 -0.984808
vn -0.087156 0.000000 -0.996195
vn -0.087156 0.000000 -0.996195
s off
g Inide_Coner2
usemtl initialShadingGroup
f 1/3/1 2/4/2 5/6/3 4/5/4
f 2/4/5 3/1/6 6/2/7 5/6/8
s 1
f 7/7/9 8/8/10 11/9/11 10/10/12
f 8/8/10 9/11/13 12/12/14 11/9/11
s 2
f 4/14/15 5/13/16 30/16/17
s 3
f 5/13/18 6/15/19 49/23/20 30/16/21
s 4
f 1/19/22 85/17/23 2/18/24
f 85/36/23 104/20/25 3/22/26 2/21/24
s 5
f 3/22/27 104/20/28 49/23/29 6/15/30
s 2
f 7/25/31 48/24/32 8/27/33
s 3
f 48/24/34 67/26/35 9/34/36 8/27/37
s 4
f 10/29/38 11/28/39 103/35/40
f 11/30/39 12/31/41 122/33/42 103/32/40
s 5
f 122/33/43 12/31/44 9/34/45 67/26/46
s 10
f 29/54/47 7/25/48 10/29/49 84/108/50
f 28/53/51 29/54/47 84/108/50 83/107/52
f 27/52/53 28/53/51 83/107/52 82/106/54
f 26/51/55 27/52/53 82/106/54 81/105/56
f 25/50/57 26/51/55 81/105/56 80/104/58
f 24/49/59 25/50/57 80/104/58 79/103/60
f 23/48/61 24/49/59 79/103/60 78/102/62
f 22/47/63 23/48/61 78/102/62 77/101/64
f 21/46/65 22/47/63 77/101/64 76/99/66
f 20/44/67 21/45/65 76/100/66 75/98/68
f 19/43/69 20/44/67 75/98/68 74/97/70
f 18/42/71 19/43/69 74/97/70 73/96/72
f 17/41/73 18/42/71 73/96/72 72/95/74
f 16/40/75 17/41/73 72/95/74 71/94/76
f 15/39/77 16/40/75 71/94/76 70/93/78
f 14/38/79 15/39/77 70/93/78 69/92/80
f 4/14/81 13/37/82 68/91/83 1/19/84
f 13/37/82 14/38/79 69/92/80 68/91/83
s 2
f 7/25/31 29/54/85 47/72/86 48/24/32
f 29/54/85 28/53/87 46/71/88 47/72/86
f 28/53/87 27/52/89 45/70/90 46/71/88
f 27/52/89 26/51/91 44/69/92 45/70/90
f 26/51/91 25/50/93 43/68/94 44/69/92
f 25/50/93 24/49/95 42/67/96 43/68/94
f 24/49/95 23/48/97 41/66/98 42/67/96
f 23/48/97 22/47/99 40/65/100 41/66/98
f 22/47/99 21/46/101 39/64/102 40/65/100
f 21/45/101 20/44/103 38/62/104 39/63/102
f 20/44/103 19/43/105 37/61/106 38/62/104
f 19/43/105 18/42/107 36/60/108 37/61/106
f 18/42/107 17/41/109 35/59/110 36/60/108
f 17/41/109 16/40/111 34/58/112 35/59/110
f 16/40/111 15/39/113 33/57/114 34/58/112
f 15/39/113 14/38/115 32/56/116 33/57/114
f 14/38/115 13/37/117 31/55/118 32/56/116
f 13/37/117 4/14/15 30/16/17 31/55/118
s 3
f 48/24/34 47/72/119 66/90/120 67/26/35
f 47/72/119 46/71/121 65/89/122 66/90/120
f 46/71/121 45/70/123 64/88/124 65/89/122
f 45/70/123 44/69/125 63/87/126 64/88/124
f 44/69/125 43/68/127 62/86/128 63/87/126
f 43/68/127 42/67/129 61/85/130 62/86/128
f 42/67/129 41/66/131 60/84/132 61/85/130
f 41/66/131 40/65/133 59/83/134 60/84/132
f 40/65/133 39/64/135 58/82/136 59/83/134
f 39/63/135 38/62/137 57/80/138 58/81/136
f 38/62/137 37/61/139 56/79/140 57/80/138
f 37/61/139 36/60/141 55/78/142 56/79/140
f 36/60/141 35/59/143 54/77/144 55/78/142
f 35/59/143 34/58/145 53/76/146 54/77/144
f 34/58/145 33/57/147 52/75/148 53/76/146
f 33/57/147 32/56/149 51/74/150 52/75/148
f 32/56/149 31/55/151 50/73/152 51/74/150
f 31/55/151 30/16/21 49/23/20 50/73/152
s 4
f 84/108/153 10/29/38 103/35/40 102/144/154
f 83/107/155 84/108/153 102/144/154 101/142/156
f 82/106/157 83/107/155 101/142/156 100/140/158
f 81/105/159 82/106/157 100/140/158 99/138/160
f 80/104/161 81/105/159 99/138/160 98/136/162
f 79/103/163 80/104/161 98/136/162 97/134/164
f 78/102/165 79/103/163 97/134/164 96/132/166
f 77/101/167 78/102/165 96/132/166 95/130/168
f 76/99/169 77/101/167 95/130/168 94/128/170
f 75/98/171 76/100/169 94/127/170 93/124/172
f 74/97/173 75/98/171 93/124/172 92/122/174
f 73/96/175 74/97/173 92/122/174 91/120/176
f 72/95/177 73/96/175 91/120/176 90/118/178
f 71/94/179 72/95/177 90/118/178 89/116/180
f 70/93/181 71/94/179 89/116/180 88/114/182
f 69/92/183 70/93/181 88/114/182 87/112/184
f 1/19/22 68/91/185 86/110/186 85/17/23
f 68/91/185 69/92/183 87/112/184 86/110/186
f 102/143/154 103/32/40 122/33/42 121/162/187
f 101/141/156 102/143/154 121/162/187 120/161/188
f 100/139/158 101/141/156 120/161/188 119/160/189
f 99/137/160 100/139/158 119/160/189 118/159/190
f 98/135/162 99/137/160 118/159/190 117/158/191
f 97/133/164 98/135/162 117/158/191 116/157/192
f 96/131/166 97/133/164 116/157/192 115/156/193
f 95/129/168 96/131/166 115/156/193 114/155/194
f 94/125/170 95/129/168 114/155/194 113/153/195
f 93/123/172 94/126/170 113/154/195 112/152/196
f 92/121/174 93/123/172 112/152/196 111/151/197
f 91/119/176 92/121/174 111/151/197 110/150/198
f 90/117/178 91/119/176 110/150/198 109/149/199
f 89/115/180 90/117/178 109/149/199 108/148/200
f 88/113/182 89/115/180 108/148/200 107/147/201
f 87/111/184 88/113/182 107/147/201 106/146/202
f 85/36/23 86/109/186 105/145/203 104/20/25
f 86/109/186 87/111/184 106/146/202 105/145/203
s 5
f 67/26/46 66/90/204 121/162/205 122/33/43
f 66/90/204 65/89/206 120/161/207 121/162/205
f 65/89/206 64/88/208 119/160/209 120/161/207
f 64/88/208 63/87/210 118/159/211 119/160/209
f 63/87/210 62/86/212 117/158/213 118/159/211
f 62/86/212 61/85/214 116/157/215 117/158/213
f 61/85/214 60/84/216 115/156/217 116/157/215
f 60/84/216 59/83/218 114/155/219 115/156/217
f 59/83/218 58/82/220 113/153/221 114/155/219
f 58/81/220 57/80/222 112/152/223 113/154/221
f 57/80/222 56/79/224 111/151/225 112/152/223
f 56/79/224 55/78/226 110/150/227 111/151/225
f 55/78/226 54/77/228 109/149/229 110/150/227
f 54/77/228 53/76/230 108/148/231 109/149/229
f 53/76/230 52/75/232 107/147/233 108/148/231
f 52/75/232 51/74/234 106/146/235 107/147/233
f 51/74/234 50/73/236 105/145/237 106/146/235
f 50/73/236 49/23/29 104/20/28 105/145/237
