# This file uses centimeters as units for non-parametric coordinates.

mtllib Middle_Cube_LP.mtl
g default
v 1.000000 0.000000 -1.000000
v 2.000000 0.000000 -1.000000
v 1.000000 0.500000 -1.000000
v 2.000000 0.500000 -1.000000
v 1.333333 1.000000 -1.333333
v 1.666667 1.000000 -1.333333
v 1.000000 0.500000 -2.000000
v 1.333333 1.000000 -1.666667
v 1.666667 1.000000 -1.666667
v 2.000000 0.500000 -2.000000
v 1.000000 0.000000 -2.000000
v 2.000000 0.000000 -2.000000
vt 0.793791 0.485550
vt 0.540847 0.146669
vt 0.881016 0.983174
vt 0.876844 0.484854
vt 0.980370 0.926969
vt 0.977125 0.539387
vt 0.977589 0.594756
vt 0.878235 0.650961
vt 0.662685 0.173161
vt 0.879625 0.817067
vt 0.796572 0.817763
vt 0.660327 0.025171
vt 0.661336 0.145660
vt 0.792399 0.319443
vt 0.797963 0.983869
vt 0.975734 0.373281
vt 0.542136 0.174170
vt 0.978979 0.760863
vt 0.875453 0.318748
vt 0.976198 0.428650
vt 0.979907 0.871600
vt 0.978516 0.705494
vt 0.795181 0.651656
vt 0.539838 0.026180
vt 0.543145 0.294719
vt 0.663694 0.293710
vn 0.000000 0.000000 1.000000
vn 0.000000 0.000000 1.000000
vn 0.000000 0.000000 1.000000
vn 0.000000 0.000000 1.000000
vn 0.000000 0.554700 0.832050
vn 0.000000 0.554700 0.832050
vn 0.000000 0.554700 0.832050
vn 0.000000 0.554700 0.832050
vn -0.832050 0.554700 0.000000
vn -0.832050 0.554700 0.000000
vn -0.832050 0.554700 0.000000
vn -0.832050 0.554700 0.000000
vn 0.000000 1.000000 0.000000
vn 0.000000 1.000000 0.000000
vn 0.000000 1.000000 0.000000
vn 0.000000 1.000000 0.000000
vn 0.832050 0.554700 0.000000
vn 0.832050 0.554700 0.000000
vn 0.832050 0.554700 0.000000
vn 0.832050 0.554700 0.000000
vn 0.000000 0.554700 -0.832050
vn 0.000000 0.554700 -0.832050
vn 0.000000 0.554700 -0.832050
vn 0.000000 0.554700 -0.832050
vn 0.000000 0.000000 -1.000000
vn 0.000000 0.000000 -1.000000
vn 0.000000 0.000000 -1.000000
vn 0.000000 0.000000 -1.000000
vn 0.000000 -1.000000 0.000000
vn 0.000000 -1.000000 0.000000
vn 0.000000 -1.000000 0.000000
vn 0.000000 -1.000000 0.000000
vn 1.000000 0.000000 0.000000
vn 1.000000 0.000000 0.000000
vn 1.000000 0.000000 0.000000
vn 1.000000 0.000000 0.000000
vn -1.000000 0.000000 0.000000
vn -1.000000 0.000000 0.000000
vn -1.000000 0.000000 0.000000
vn -1.000000 0.000000 0.000000
s off
g Middle_Cube
usemtl initialShadingGroup
f 1/1/1 2/14/2 4/19/3 3/4/4
f 3/4/5 4/19/6 6/16/7 5/20/8
f 3/4/9 5/6/10 8/7/11 7/8/12
f 5/25/13 6/17/14 9/9/15 8/26/16
f 6/5/17 4/3/18 10/10/19 9/21/20
f 8/22/21 9/18/22 10/10/23 7/8/24
f 7/8/25 10/10/26 12/11/27 11/23/28
f 11/12/29 12/13/30 2/2/31 1/24/32
f 2/15/33 12/11/34 10/10/35 4/3/36
f 11/23/37 1/1/38 3/4/39 7/8/40
