# This file uses centimeters as units for non-parametric coordinates.

mtllib Outside_Bend_LP.mtl
g default
v 3.000000 1.000000 -4.000000
v 3.000000 1.000000 -3.500000
v 2.999850 0.500000 -3.000000
v 3.000000 0.000000 -4.000000
v 3.000000 -0.000000 -3.500000
v 2.999850 -0.000000 -3.000000
v -1.000000 0.000000 0.000000
v -0.500000 0.000000 0.000000
v 0.000000 -0.000000 -0.000150
v -1.000000 1.000000 0.000000
v -0.500000 1.000000 0.000000
v 0.000000 0.500000 -0.000150
v -1.000000 -0.000000 -4.000000
v 2.499700 0.000000 -3.500000
v 2.238259 0.000000 -3.488585
v 1.978808 0.000000 -3.454428
v 1.723321 0.000000 -3.397788
v 1.473742 0.000000 -3.319096
v 1.231972 0.000000 -3.218951
v 0.999850 0.000000 -3.098116
v 0.779143 0.000000 -2.957510
v 0.571530 0.000000 -2.798203
v 0.378592 0.000000 -2.621408
v 0.201797 0.000000 -2.428470
v 0.042490 0.000000 -2.220857
v -0.098116 0.000000 -2.000150
v -0.218951 0.000000 -1.768028
v -0.319096 0.000000 -1.526258
v -0.397788 0.000000 -1.276679
v -0.454428 0.000000 -1.021192
v -0.488585 0.000000 -0.761741
v -0.500000 0.000000 -0.500300
v 2.738259 -0.000000 -2.988585
v 2.478808 -0.000000 -2.954428
v 2.223320 -0.000000 -2.897788
v 1.973742 0.000000 -2.819096
v 1.731972 -0.000000 -2.718951
v 1.499850 -0.000000 -2.598116
v 1.279143 -0.000000 -2.457510
v 1.071530 -0.000000 -2.298203
v 0.878592 -0.000000 -2.121408
v 0.701797 -0.000000 -1.928470
v 0.542490 -0.000000 -1.720857
v 0.401884 -0.000000 -1.500150
v 0.281049 -0.000000 -1.268028
v 0.180904 -0.000000 -1.026258
v 0.102212 -0.000000 -0.776679
v 0.045572 0.000000 -0.521192
v 0.011415 -0.000000 -0.261741
v -1.000000 1.000000 -4.000000
v 2.499700 1.000000 -3.500000
v 2.238259 1.000000 -3.488585
v 1.978808 1.000000 -3.454428
v 1.723320 1.000000 -3.397788
v 1.473742 1.000000 -3.319096
v 1.231972 1.000000 -3.218951
v 0.999850 1.000000 -3.098116
v 0.779143 1.000000 -2.957510
v 0.571530 1.000000 -2.798203
v 0.378592 1.000000 -2.621408
v 0.201796 1.000000 -2.428470
v 0.042490 1.000000 -2.220857
v -0.098116 1.000000 -2.000150
v -0.218951 1.000000 -1.768028
v -0.319096 1.000000 -1.526258
v -0.397788 1.000000 -1.276680
v -0.454428 1.000000 -1.021192
v -0.488585 1.000000 -0.761741
v -0.500000 1.000000 -0.500300
v 2.738259 0.500000 -2.988585
v 2.478808 0.500000 -2.954428
v 2.223321 0.500000 -2.897788
v 1.973742 0.500000 -2.819096
v 1.731972 0.500000 -2.718951
v 1.499850 0.500000 -2.598116
v 1.279143 0.500000 -2.457510
v 1.071530 0.500000 -2.298203
v 0.878592 0.500000 -2.121408
v 0.701797 0.500000 -1.928470
v 0.542490 0.500000 -1.720857
v 0.401884 0.500000 -1.500150
v 0.281049 0.500000 -1.268028
v 0.180904 0.500000 -1.026258
v 0.102212 0.500000 -0.776679
v 0.045572 0.500000 -0.521192
v 0.011415 0.500000 -0.261741
vt 0.037695 0.386769
vt 0.037695 0.448758
vt 0.101119 0.324840
vt 0.164797 0.324899
vt 0.164797 0.448876
vt 0.164797 0.386888
vt 0.164797 0.625470
vt 0.164797 0.563482
vt 0.037695 0.563743
vt 0.037695 0.625731
vt 0.164797 0.501494
vt 0.101119 0.501624
vt 0.244076 0.833171
vt 0.199924 0.789101
vt 0.199937 0.895449
vt 0.199924 0.833171
vt 0.199924 0.657674
vt 0.415989 0.705172
vt 0.199924 0.983591
vt 0.199937 0.939407
vt 0.244049 0.983591
vt 0.199924 0.701185
vt 0.416861 0.783237
vt 0.202214 0.494125
vt 0.304470 0.447991
vt 0.202227 0.556411
vt 0.246039 0.494125
vt 0.246012 0.318760
vt 0.202214 0.318760
vt 0.202214 0.362132
vt 0.202227 0.600369
vt 0.202214 0.644678
vt 0.304131 0.363222
vt 0.202214 0.450046
vt 0.244049 0.657674
vt 0.246012 0.644678
vt 0.445095 0.366611
vt 0.273445 0.983591
vt 0.273445 0.657674
vt 0.302841 0.983591
vt 0.302841 0.657674
vt 0.332238 0.983591
vt 0.332238 0.657674
vt 0.361634 0.983591
vt 0.361634 0.657674
vt 0.391030 0.983591
vt 0.391030 0.657674
vt 0.420426 0.983591
vt 0.420426 0.657674
vt 0.449822 0.983591
vt 0.449822 0.657674
vt 0.479218 0.983591
vt 0.479218 0.657674
vt 0.508614 0.983591
vt 0.508614 0.644678
vt 0.508614 0.318760
vt 0.508614 0.657674
vt 0.479436 0.644678
vt 0.479436 0.318760
vt 0.450258 0.644678
vt 0.450258 0.318760
vt 0.421080 0.644678
vt 0.421080 0.318760
vt 0.391902 0.644678
vt 0.391902 0.318760
vt 0.362724 0.644678
vt 0.362724 0.318760
vt 0.333546 0.644678
vt 0.333546 0.318760
vt 0.304368 0.644678
vt 0.304368 0.318760
vt 0.275190 0.644678
vt 0.275190 0.318760
vt 0.229764 0.939028
vt 0.261288 0.937997
vt 0.293647 0.936855
vt 0.326182 0.935895
vt 0.358280 0.935289
vt 0.389264 0.935159
vt 0.418268 0.935637
vt 0.444092 0.936924
vt 0.464986 0.939407
vt 0.464986 0.600369
vt 0.444281 0.597952
vt 0.418570 0.596751
vt 0.389732 0.596350
vt 0.358997 0.596531
vt 0.327228 0.597150
vt 0.295093 0.598069
vt 0.263166 0.599112
vt 0.232010 0.600015
vt 0.445833 0.443055
vt 0.274312 0.830293
vt 0.304808 0.828131
vt 0.335194 0.826702
vt 0.365286 0.825995
vt 0.395017 0.825996
vt 0.424368 0.826705
vt 0.453290 0.828135
vt 0.481602 0.830300
vt 0.508800 0.494125
vt 0.508800 0.833171
vt 0.481812 0.491246
vt 0.453738 0.489061
vt 0.425075 0.487602
vt 0.396004 0.486864
vt 0.366554 0.486845
vt 0.336704 0.487560
vt 0.306481 0.489033
vt 0.276075 0.491262
vt 0.230299 0.894254
vt 0.261866 0.893293
vt 0.294101 0.892616
vt 0.326433 0.892278
vt 0.358268 0.892321
vt 0.388949 0.892755
vt 0.417682 0.893540
vt 0.443455 0.894544
vt 0.464986 0.556411
vt 0.464986 0.895449
vt 0.443737 0.555539
vt 0.418295 0.554589
vt 0.389871 0.553860
vt 0.359448 0.553478
vt 0.327818 0.553480
vt 0.295652 0.553845
vt 0.263581 0.554514
vt 0.232241 0.555396
vn 1.000000 0.000000 -0.000000
vn 1.000000 0.000000 0.000081
vn 1.000000 0.000000 0.000128
vn 1.000000 0.000000 -0.000000
vn 1.000000 0.000000 0.000300
vn 1.000000 0.000000 0.000300
vn 0.000000 0.000000 1.000000
vn 0.000129 0.000000 1.000000
vn 0.000082 0.000000 1.000000
vn 0.000000 0.000000 1.000000
vn 0.000300 0.000000 1.000000
vn 0.000300 0.000000 1.000000
vn 0.000000 1.000000 0.000000
vn 0.000000 1.000000 0.000000
vn 0.000000 1.000000 0.000000
vn 0.000000 1.000000 0.000000
vn 0.021342 0.717537 0.696193
vn 0.019059 0.716444 0.697384
vn 0.000000 0.707107 0.707107
vn 0.000000 -1.000000 -0.000000
vn -0.000000 -1.000000 -0.000000
vn 0.000000 -1.000000 -0.000000
vn 0.000000 -1.000000 -0.000000
vn -0.000000 -1.000000 0.000000
vn -0.000000 0.000000 -1.000000
vn -0.707107 0.000000 -0.707107
vn -0.707107 0.000000 -0.707107
vn -0.000000 0.000000 -1.000000
vn 0.000000 1.000000 0.000000
vn 0.000000 1.000000 0.000000
vn 0.000000 1.000000 0.000000
vn 0.707107 0.707107 0.000000
vn 0.697384 0.716444 0.019058
vn 0.696193 0.717537 0.021341
vn 0.000000 -1.000000 0.000000
vn 0.000000 -1.000000 0.000000
vn 0.000000 -1.000000 0.000000
vn -0.000000 -1.000000 0.000000
vn -1.000000 0.000000 0.000000
vn -1.000000 0.000000 0.000000
vn 0.000000 -1.000000 -0.000000
vn 0.000000 -1.000000 0.000000
vn -0.000000 -1.000000 0.000000
vn -0.000000 -1.000000 0.000000
vn -0.000000 -1.000000 0.000000
vn -0.000000 -1.000000 -0.000000
vn -0.000000 -1.000000 -0.000000
vn -0.000000 -1.000000 -0.000000
vn -0.000000 -1.000000 -0.000000
vn -0.000000 -1.000000 -0.000000
vn -0.000000 -1.000000 -0.000000
vn -0.000000 -1.000000 -0.000000
vn 0.000000 -1.000000 -0.000000
vn 0.000000 -1.000000 0.000000
vn -0.000000 -1.000000 0.000000
vn 0.000000 -1.000000 0.000000
vn 0.000000 -1.000000 0.000000
vn -0.000000 -1.000000 -0.000000
vn 0.000000 -1.000000 -0.000000
vn -0.000000 -1.000000 0.000000
vn -0.000000 -1.000000 -0.000000
vn -0.000000 -1.000000 -0.000000
vn -0.000000 -1.000000 -0.000000
vn -0.000000 -1.000000 -0.000000
vn -0.000000 -1.000000 -0.000000
vn -0.000000 -1.000000 -0.000000
vn -0.000000 -1.000000 -0.000000
vn -0.000000 -1.000000 -0.000000
vn -0.000000 -1.000000 -0.000000
vn 0.000000 -1.000000 -0.000000
vn -0.000000 -1.000000 -0.000000
vn -0.000000 -1.000000 -0.000000
vn 0.000000 -1.000000 -0.000000
vn 0.000000 -1.000000 -0.000000
vn 0.000000 1.000000 0.000000
vn 0.000000 1.000000 0.000000
vn 0.000000 1.000000 -0.000000
vn 0.000000 1.000000 -0.000000
vn 0.000000 1.000000 -0.000000
vn 0.000000 1.000000 -0.000000
vn 0.000000 1.000000 0.000000
vn 0.000000 1.000000 -0.000000
vn 0.000000 1.000000 0.000000
vn 0.000000 1.000000 0.000000
vn 0.000000 1.000000 0.000000
vn 0.000000 1.000000 0.000000
vn 0.000000 1.000000 0.000000
vn -0.000000 1.000000 0.000000
vn -0.000000 1.000000 0.000000
vn 0.000000 1.000000 0.000002
vn 0.000000 1.000000 0.000000
vn 0.669962 0.739164 0.069201
vn 0.681179 0.730456 0.049274
vn 0.638366 0.760054 0.121688
vn 0.648435 0.753925 0.105490
vn 0.606421 0.776698 0.170276
vn 0.615196 0.772518 0.157322
vn 0.574252 0.789795 0.215543
vn 0.581655 0.787072 0.205417
vn 0.541874 0.799879 0.258005
vn 0.547865 0.798225 0.250361
vn 0.509224 0.807349 0.298125
vn 0.513778 0.806456 0.292679
vn 0.476186 0.812493 0.336307
vn 0.479272 0.812108 0.332836
vn 0.442594 0.815505 0.372910
vn 0.444170 0.815410 0.371240
vn 0.408248 0.816497 0.408248
vn 0.408248 0.816497 0.408248
vn 0.372910 0.815505 0.442594
vn 0.371240 0.815410 0.444170
vn 0.336307 0.812493 0.476186
vn 0.332836 0.812108 0.479272
vn 0.298125 0.807349 0.509224
vn 0.292679 0.806456 0.513778
vn 0.258005 0.799879 0.541874
vn 0.250360 0.798225 0.547865
vn 0.215543 0.789795 0.574252
vn 0.205417 0.787072 0.581655
vn 0.170276 0.776698 0.606421
vn 0.157322 0.772518 0.615196
vn 0.121687 0.760053 0.638366
vn 0.105490 0.753925 0.648436
vn 0.069201 0.739163 0.669962
vn 0.049275 0.730456 0.681180
vn 0.999049 0.000000 0.043595
vn 0.996197 0.000000 0.087131
vn 0.996197 0.000000 0.087131
vn 0.999049 0.000000 0.043595
vn 0.984808 -0.000000 0.173648
vn 0.984808 -0.000000 0.173648
vn 0.965926 -0.000000 0.258819
vn 0.965926 -0.000000 0.258819
vn 0.939693 0.000000 0.342020
vn 0.939693 0.000000 0.342020
vn 0.906308 0.000000 0.422618
vn 0.906308 0.000000 0.422618
vn 0.866025 0.000000 0.500000
vn 0.866026 0.000000 0.500000
vn 0.819152 0.000000 0.573577
vn 0.819152 0.000000 0.573577
vn 0.766044 0.000000 0.642788
vn 0.766044 0.000000 0.642788
vn 0.707107 0.000000 0.707107
vn 0.707107 0.000000 0.707107
vn 0.642788 0.000000 0.766044
vn 0.642788 0.000000 0.766044
vn 0.573576 0.000000 0.819152
vn 0.573576 0.000000 0.819152
vn 0.500000 0.000000 0.866026
vn 0.500000 0.000000 0.866026
vn 0.422618 0.000000 0.906308
vn 0.422618 0.000000 0.906308
vn 0.342020 -0.000000 0.939693
vn 0.342020 -0.000000 0.939693
vn 0.258819 -0.000000 0.965926
vn 0.258819 -0.000000 0.965926
vn 0.173648 0.000000 0.984808
vn 0.173648 0.000000 0.984808
vn 0.087131 0.000000 0.996197
vn 0.087131 0.000000 0.996197
vn 0.043594 0.000000 0.999049
vn 0.043594 0.000000 0.999049
s 1
g Ooutside_Bend
usemtl initialShadingGroup
f 1/2/1 2/1/2 5/6/3 4/5/4
f 2/1/2 3/3/5 6/4/6 5/6/3
s 2
f 7/7/7 8/8/8 11/9/9 10/10/10
f 8/8/8 9/11/11 12/12/12 11/9/9
s 3
f 50/23/13 51/13/14 2/16/15 1/14/16
s 4
f 51/13/17 3/15/18 2/16/19
s 5
f 4/22/20 5/17/21 14/35/22 13/18/23
f 5/19/21 6/20/24 14/21/22
s 6
f 4/22/25 13/18/26 50/23/27 1/14/28
s 3
f 10/34/29 11/24/30 69/27/31 50/25/13
s 4
f 11/24/32 12/26/33 69/27/34
s 5
f 13/33/23 32/28/35 8/29/36 7/30/37
f 32/36/35 9/31/38 8/32/36
s 6
f 13/33/26 7/30/39 10/34/40 50/25/27
s 5
f 13/33/23 31/73/41 32/28/35
f 13/33/23 30/71/42 31/73/41
f 13/37/23 29/69/43 30/71/42
f 13/37/23 28/67/44 29/69/43
f 13/37/23 27/65/45 28/67/44
f 13/37/23 26/63/46 27/65/45
f 13/37/23 25/61/47 26/63/46
f 13/37/23 24/59/48 25/61/47
f 13/37/23 23/56/49 24/59/48
f 13/18/23 22/53/50 23/57/49
f 13/18/23 21/51/51 22/53/50
f 13/18/23 20/49/52 21/51/51
f 13/18/23 19/47/53 20/49/52
f 13/18/23 18/45/54 19/47/53
f 13/18/23 17/43/55 18/45/54
f 13/18/23 16/41/56 17/43/55
f 13/18/23 15/39/57 16/41/56
f 13/18/23 14/35/22 15/39/57
f 32/36/35 31/72/41 49/91/58 9/31/38
f 31/72/41 30/70/42 48/90/59 49/91/58
f 30/70/42 29/68/43 47/89/60 48/90/59
f 29/68/43 28/66/44 46/88/61 47/89/60
f 28/66/44 27/64/45 45/87/62 46/88/61
f 27/64/45 26/62/46 44/86/63 45/87/62
f 26/62/46 25/60/47 43/85/64 44/86/63
f 25/60/47 24/58/48 42/84/65 43/85/64
f 24/58/48 23/55/49 41/83/66 42/84/65
f 23/54/49 22/52/50 40/81/67 41/82/66
f 22/52/50 21/50/51 39/80/68 40/81/67
f 21/50/51 20/48/52 38/79/69 39/80/68
f 20/48/52 19/46/53 37/78/70 38/79/69
f 19/46/53 18/44/54 36/77/71 37/78/70
f 18/44/54 17/42/55 35/76/72 36/77/71
f 17/42/55 16/40/56 34/75/73 35/76/72
f 16/40/56 15/38/57 33/74/74 34/75/73
f 15/38/57 14/21/22 6/20/24 33/74/74
s 3
f 50/25/13 69/27/31 68/110/75
f 50/92/13 68/110/75 67/109/76
f 50/92/13 67/109/76 66/108/77
f 50/92/13 66/108/77 65/107/78
f 50/92/13 65/107/78 64/106/79
f 50/92/13 64/106/79 63/105/80
f 50/92/13 63/105/80 62/104/81
f 50/92/13 62/104/81 61/103/82
f 50/92/13 61/103/82 60/101/83
f 50/23/13 60/102/83 59/100/84
f 50/23/13 59/100/84 58/99/85
f 50/23/13 58/99/85 57/98/86
f 50/23/13 57/98/86 56/97/87
f 50/23/13 56/97/87 55/96/88
f 50/23/13 55/96/88 54/95/89
f 50/23/13 54/95/89 53/94/90
f 50/23/13 52/93/91 51/13/14
f 50/23/13 53/94/90 52/93/91
s 4
f 68/110/92 69/27/34 12/26/33 86/128/93
f 67/109/94 68/110/92 86/128/93 85/127/95
f 66/108/96 67/109/94 85/127/95 84/126/97
f 65/107/98 66/108/96 84/126/97 83/125/99
f 64/106/100 65/107/98 83/125/99 82/124/101
f 63/105/102 64/106/100 82/124/101 81/123/103
f 62/104/104 63/105/102 81/123/103 80/122/105
f 61/103/106 62/104/104 80/122/105 79/121/107
f 60/101/108 61/103/106 79/121/107 78/119/109
f 59/100/110 60/102/108 78/120/109 77/118/111
f 58/99/112 59/100/110 77/118/111 76/117/113
f 57/98/114 58/99/112 76/117/113 75/116/115
f 56/97/116 57/98/114 75/116/115 74/115/117
f 55/96/118 56/97/116 74/115/117 73/114/119
f 54/95/120 55/96/118 73/114/119 72/113/121
f 53/94/122 54/95/120 72/113/121 71/112/123
f 51/13/17 52/93/124 70/111/125 3/15/18
f 52/93/124 53/94/122 71/112/123 70/111/125
s 10
f 9/31/126 49/91/127 86/128/128 12/26/129
f 49/91/127 48/90/130 85/127/131 86/128/128
f 48/90/130 47/89/132 84/126/133 85/127/131
f 47/89/132 46/88/134 83/125/135 84/126/133
f 46/88/134 45/87/136 82/124/137 83/125/135
f 45/87/136 44/86/138 81/123/139 82/124/137
f 44/86/138 43/85/140 80/122/141 81/123/139
f 43/85/140 42/84/142 79/121/143 80/122/141
f 42/84/142 41/83/144 78/119/145 79/121/143
f 41/82/144 40/81/146 77/118/147 78/120/145
f 40/81/146 39/80/148 76/117/149 77/118/147
f 39/80/148 38/79/150 75/116/151 76/117/149
f 38/79/150 37/78/152 74/115/153 75/116/151
f 37/78/152 36/77/154 73/114/155 74/115/153
f 36/77/154 35/76/156 72/113/157 73/114/155
f 35/76/156 34/75/158 71/112/159 72/113/157
f 34/75/158 33/74/160 70/111/161 71/112/159
f 33/74/160 6/20/162 3/15/163 70/111/161
