# This file uses centimeters as units for non-parametric coordinates.

mtllib Wall_LP.mtl
g default
v -1.000000 0.000000 0.000000
v -0.500000 0.000000 0.000000
v 0.000000 0.000000 0.000000
v -1.000000 1.000000 0.000000
v -0.500000 1.000000 0.000000
v 0.000000 0.500000 0.000000
v -1.000000 1.000000 -3.000000
v -0.500000 1.000000 -3.000000
v 0.000000 0.500000 -3.000000
v -1.000000 0.000000 -3.000000
v -0.500000 0.000000 -3.000000
v 0.000000 0.000000 -3.000000
vt 0.312661 0.295006
vt 0.357988 0.295006
vt 0.176680 0.295006
vt 0.222007 0.295006
vt 0.067251 0.295005
vt 0.112578 0.295005
vt 0.391042 0.085456
vt 0.391042 0.149311
vt 0.112578 0.023044
vt 0.021925 0.023044
vt 0.312661 0.023044
vt 0.067251 0.023044
vt 0.455626 0.021845
vt 0.518994 0.021845
vt 0.518994 0.149311
vt 0.517307 0.169964
vt 0.452966 0.169964
vt 0.517307 0.297916
vt 0.518994 0.085456
vt 0.517307 0.234062
vt 0.357988 0.023044
vt 0.021925 0.295005
vt 0.222007 0.023044
vt 0.176680 0.023044
vt 0.389841 0.297916
vt 0.389841 0.234062
vn 0.000000 0.000000 1.000000
vn 0.000000 0.000000 1.000000
vn 0.000000 0.000000 1.000000
vn 0.000000 0.000000 1.000000
vn 0.000000 0.000000 1.000000
vn 0.000000 0.000000 1.000000
vn 0.000000 1.000000 0.000000
vn 0.000000 1.000000 0.000000
vn 0.000000 1.000000 0.000000
vn 0.000000 1.000000 0.000000
vn 0.707107 0.707107 0.000000
vn 0.707107 0.707107 0.000000
vn 0.707107 0.707107 0.000000
vn 0.707107 0.707107 0.000000
vn 0.000000 0.000000 -1.000000
vn 0.000000 0.000000 -1.000000
vn 0.000000 0.000000 -1.000000
vn 0.000000 0.000000 -1.000000
vn 0.000000 0.000000 -1.000000
vn 0.000000 0.000000 -1.000000
vn 0.000000 -1.000000 0.000000
vn 0.000000 -1.000000 0.000000
vn 0.000000 -1.000000 0.000000
vn 0.000000 -1.000000 0.000000
vn 0.000000 -1.000000 0.000000
vn 0.000000 -1.000000 0.000000
vn 1.000000 0.000000 0.000000
vn 1.000000 0.000000 0.000000
vn 1.000000 0.000000 0.000000
vn 1.000000 0.000000 0.000000
vn -1.000000 0.000000 0.000000
vn -1.000000 0.000000 0.000000
vn -1.000000 0.000000 0.000000
vn -1.000000 0.000000 0.000000
s 1
g Wall
usemtl initialShadingGroup
f 1/18/1 2/20/2 5/26/3 4/25/4
f 2/20/2 3/16/5 6/17/6 5/26/3
s off
f 4/4/7 5/3/8 8/24/9 7/23/10
f 5/3/11 6/6/12 9/9/13 8/24/14
s 2
f 7/8/15 8/7/16 11/19/17 10/15/18
f 8/7/16 9/13/19 12/14/20 11/19/17
s 3
f 10/11/21 11/21/22 2/2/23 1/1/24
f 11/10/22 12/12/25 3/5/26 2/22/23
s off
f 3/5/27 12/12/28 9/9/29 6/6/30
f 10/11/31 1/1/32 4/4/33 7/23/34
