# This file uses centimeters as units for non-parametric coordinates.

mtllib Wall_Corner_LP.mtl
g default
v 2.999900 0.000000 -2.000000
v 1.585728 0.000000 -1.414272
v 1.714353 0.000000 -1.532136
v 1.467864 0.000000 -1.285647
v 1.852762 0.000000 -1.638340
v 1.361660 0.000000 -1.147238
v 1.999900 0.000000 -1.732078
v 1.267922 0.000000 -1.000100
v 1.187366 0.000000 -0.845352
v 2.154648 0.000000 -1.812634
v 1.120603 0.000000 -0.684172
v 2.315828 0.000000 -1.879397
v 1.068142 0.000000 -0.517786
v 2.482214 0.000000 -1.931858
v 1.030381 0.000000 -0.347462
v 2.652538 0.000000 -1.969619
v 1.000000 0.000000 -0.000100
v 2.825506 0.000000 -1.992390
v 1.007610 0.000000 -0.174494
v 3.000000 0.000000 0.000000
vt 0.692782 0.111460
vt 0.692772 0.300116
vt 0.709231 0.112183
vt 0.725546 0.114331
vt 0.741612 0.117893
vt 0.757307 0.122841
vt 0.772510 0.129139
vt 0.787107 0.136737
vt 0.800986 0.145579
vt 0.814041 0.155597
vt 0.826174 0.166714
vt 0.837291 0.178847
vt 0.847309 0.191903
vt 0.856151 0.205781
vt 0.863749 0.220378
vt 0.870047 0.235582
vt 0.874995 0.251276
vt 0.878557 0.267342
vt 0.880705 0.283657
vt 0.881423 0.300107
vn 0.000000 1.000000 -0.000000
vn 0.000000 1.000000 -0.000000
vn 0.000000 1.000000 -0.000000
vn 0.000000 1.000000 -0.000000
vn 0.000000 1.000000 -0.000000
vn 0.000000 1.000000 -0.000000
vn 0.000000 1.000000 -0.000000
vn 0.000000 1.000000 -0.000000
vn 0.000000 1.000000 -0.000000
vn 0.000000 1.000000 -0.000000
vn 0.000000 1.000000 -0.000000
vn 0.000000 1.000000 -0.000000
vn 0.000000 1.000000 -0.000000
vn 0.000000 1.000000 -0.000000
vn 0.000000 1.000000 -0.000000
vn 0.000000 1.000000 -0.000000
vn 0.000000 1.000000 -0.000000
vn 0.000000 1.000000 -0.000000
vn 0.000000 1.000000 -0.000000
vn 0.000000 1.000000 -0.000000
s off
g Corner_Floor
usemtl initialShadingGroup
f 17/20/1 20/2/2 1/1/3 18/3/4 16/4/5 14/5/6 12/6/7 10/7/8 7/8/9 5/9/10 3/10/11 2/11/12 4/12/13 6/13/14 8/14/15 9/15/16 11/16/17 13/17/18 15/18/19 19/19/20
